<svg width="788" height="475" viewBox="0 0 788 475" fill="none" xmlns="http://www.w3.org/2000/svg">
<path d="M36.6377 326.503C-80.1968 139.024 105.923 38.9451 264.873 25.8125C351.819 25.8125 384.424 46.1906 402.085 87.8525C416.214 121.182 578.243 153.968 657.491 166.195C801.949 244.538 776.137 395.788 699.606 443.337C623.074 490.886 414.765 399.864 364.499 436.092C314.233 472.32 153.472 513.981 36.6377 326.503Z" fill="#E6F0FF"/>
<path fill-rule="evenodd" clip-rule="evenodd" d="M52.8888 350.752C51.4837 348.805 50.0835 346.827 48.6886 344.82C189.193 262.459 108.479 213.197 3.77832 183.726C5.85159 175.135 8.74524 166.89 12.3762 158.994C208.939 239.374 147.303 306.343 52.8888 350.752Z" fill="#D4E6FD"/>
<path fill-rule="evenodd" clip-rule="evenodd" d="M751.211 378.245C750.573 379.907 749.907 381.553 749.215 383.182C656.332 345.331 583.437 275.242 712.94 207.323C721.474 216.064 728.769 225.176 734.913 234.529C666.767 258.9 622.349 300.693 751.211 378.245Z" fill="#D3E6FD"/>
<circle cx="364.182" cy="381.432" r="4.66479" fill="#D3E6FD"/>
<circle cx="386.408" cy="381.432" r="4.66479" fill="#D3E6FD"/>
<circle cx="408.633" cy="381.432" r="4.66479" fill="#D3E6FD"/>
<circle cx="430.859" cy="381.432" r="4.66479" fill="#D3E6FD"/>
<circle cx="453.084" cy="381.432" r="4.66479" fill="#D3E6FD"/>
<circle cx="475.31" cy="381.432" r="4.66479" fill="#D3E6FD"/>
<circle cx="364.181" cy="403.66" r="4.66479" fill="#D3E6FD"/>
<circle cx="386.406" cy="403.659" r="4.66479" fill="#D3E6FD"/>
<circle cx="408.631" cy="403.659" r="4.66479" fill="#D3E6FD"/>
<circle cx="430.858" cy="403.659" r="4.66479" fill="#D3E6FD"/>
<circle cx="453.082" cy="403.659" r="4.66479" fill="#D3E6FD"/>
<circle cx="475.308" cy="403.659" r="4.66479" fill="#D3E6FD"/>
<circle cx="364.181" cy="425.884" r="4.66479" fill="#D3E6FD"/>
<circle cx="386.406" cy="425.884" r="4.66479" fill="#D3E6FD"/>
<circle cx="408.631" cy="425.884" r="4.66479" fill="#D3E6FD"/>
<circle cx="430.858" cy="425.884" r="4.66479" fill="#D3E6FD"/>
<circle cx="453.082" cy="425.884" r="4.66479" fill="#D3E6FD"/>
<circle cx="475.308" cy="425.884" r="4.66479" fill="#D3E6FD"/>
<circle cx="364.181" cy="448.109" r="4.66479" fill="#D3E6FD"/>
<circle cx="386.406" cy="448.109" r="4.66479" fill="#D3E6FD"/>
<circle cx="408.631" cy="448.109" r="4.66479" fill="#D3E6FD"/>
<circle cx="430.858" cy="448.109" r="4.66479" fill="#D3E6FD"/>
<circle cx="453.082" cy="448.109" r="4.66479" fill="#D3E6FD"/>
<circle cx="475.308" cy="448.109" r="4.66479" fill="#D3E6FD"/>
<circle cx="364.181" cy="470.336" r="4.66479" fill="#D3E6FD"/>
<circle cx="386.406" cy="470.336" r="4.66479" fill="#D3E6FD"/>
<circle cx="408.631" cy="470.336" r="4.66479" fill="#D3E6FD"/>
<circle cx="430.858" cy="470.336" r="4.66479" fill="#D3E6FD"/>
<circle cx="453.082" cy="470.336" r="4.66479" fill="#D3E6FD"/>
<circle cx="475.308" cy="470.336" r="4.66479" fill="#D3E6FD"/>
<circle cx="4.75561" cy="46.0554" r="4.66479" fill="#D3E6FD"/>
<circle cx="26.9802" cy="46.0554" r="4.66479" fill="#D3E6FD"/>
<circle cx="49.2048" cy="46.0554" r="4.66479" fill="#D3E6FD"/>
<circle cx="71.4314" cy="46.0554" r="4.66479" fill="#D3E6FD"/>
<circle cx="93.655" cy="46.0554" r="4.66479" fill="#D3E6FD"/>
<circle cx="115.883" cy="46.0554" r="4.66479" fill="#D3E6FD"/>
<circle cx="4.75366" cy="68.283" r="4.66479" fill="#D3E6FD"/>
<circle cx="26.9773" cy="68.282" r="4.66479" fill="#D3E6FD"/>
<circle cx="49.2029" cy="68.282" r="4.66479" fill="#D3E6FD"/>
<circle cx="71.4294" cy="68.282" r="4.66479" fill="#D3E6FD"/>
<circle cx="93.6541" cy="68.282" r="4.66479" fill="#D3E6FD"/>
<circle cx="115.881" cy="68.282" r="4.66479" fill="#D3E6FD"/>
<circle cx="4.75366" cy="90.5066" r="4.66479" fill="#D3E6FD"/>
<circle cx="26.9773" cy="90.5066" r="4.66479" fill="#D3E6FD"/>
<circle cx="49.2029" cy="90.5066" r="4.66479" fill="#D3E6FD"/>
<circle cx="71.4294" cy="90.5066" r="4.66479" fill="#D3E6FD"/>
<circle cx="93.6541" cy="90.5066" r="4.66479" fill="#D3E6FD"/>
<circle cx="115.881" cy="90.5066" r="4.66479" fill="#D3E6FD"/>
<circle cx="4.75366" cy="112.732" r="4.66479" fill="#D3E6FD"/>
<circle cx="26.9773" cy="112.732" r="4.66479" fill="#D3E6FD"/>
<circle cx="49.2029" cy="112.732" r="4.66479" fill="#D3E6FD"/>
<circle cx="71.4294" cy="112.732" r="4.66479" fill="#D3E6FD"/>
<circle cx="93.6541" cy="112.732" r="4.66479" fill="#D3E6FD"/>
<circle cx="115.881" cy="112.732" r="4.66479" fill="#D3E6FD"/>
<circle cx="4.75366" cy="134.959" r="4.66479" fill="#D3E6FD"/>
<circle cx="26.9773" cy="134.959" r="4.66479" fill="#D3E6FD"/>
<circle cx="49.2029" cy="134.959" r="4.66479" fill="#D3E6FD"/>
<circle cx="71.4294" cy="134.959" r="4.66479" fill="#D3E6FD"/>
<circle cx="93.6541" cy="134.959" r="4.66479" fill="#D3E6FD"/>
<circle cx="115.881" cy="134.959" r="4.66479" fill="#D3E6FD"/>
<circle cx="576.116" cy="37.2703" r="4.66479" fill="#D3E6FD"/>
<circle cx="598.345" cy="37.2683" r="4.66479" fill="#D3E6FD"/>
<circle cx="620.568" cy="37.2683" r="4.66479" fill="#D3E6FD"/>
<circle cx="642.794" cy="37.2683" r="4.66479" fill="#D3E6FD"/>
<circle cx="665.019" cy="37.2683" r="4.66479" fill="#D3E6FD"/>
<circle cx="687.246" cy="37.2683" r="4.66479" fill="#D3E6FD"/>
<circle cx="576.116" cy="59.4929" r="4.66479" fill="#D3E6FD"/>
<circle cx="598.344" cy="59.4929" r="4.66479" fill="#D3E6FD"/>
<circle cx="620.568" cy="59.4929" r="4.66479" fill="#D3E6FD"/>
<circle cx="642.794" cy="59.4929" r="4.66479" fill="#D3E6FD"/>
<circle cx="665.019" cy="59.4929" r="4.66479" fill="#D3E6FD"/>
<circle cx="687.246" cy="59.4929" r="4.66479" fill="#D3E6FD"/>
<circle cx="576.116" cy="81.7195" r="4.66479" fill="#D3E6FD"/>
<circle cx="598.344" cy="81.7195" r="4.66479" fill="#D3E6FD"/>
<circle cx="620.568" cy="81.7195" r="4.66479" fill="#D3E6FD"/>
<circle cx="642.794" cy="81.7195" r="4.66479" fill="#D3E6FD"/>
<circle cx="665.019" cy="81.7195" r="4.66479" fill="#D3E6FD"/>
<circle cx="687.246" cy="81.7195" r="4.66479" fill="#D3E6FD"/>
<circle cx="576.116" cy="103.946" r="4.66479" fill="#D3E6FD"/>
<circle cx="598.344" cy="103.945" r="4.66479" fill="#D3E6FD"/>
<circle cx="620.568" cy="103.945" r="4.66479" fill="#D3E6FD"/>
<circle cx="642.794" cy="103.945" r="4.66479" fill="#D3E6FD"/>
<circle cx="665.019" cy="103.945" r="4.66479" fill="#D3E6FD"/>
<circle cx="687.246" cy="103.945" r="4.66479" fill="#D3E6FD"/>
<circle cx="576.116" cy="126.173" r="4.66479" fill="#D3E6FD"/>
<circle cx="598.344" cy="126.171" r="4.66479" fill="#D3E6FD"/>
<circle cx="620.568" cy="126.171" r="4.66479" fill="#D3E6FD"/>
<circle cx="642.794" cy="126.171" r="4.66479" fill="#D3E6FD"/>
<circle cx="665.019" cy="126.171" r="4.66479" fill="#D3E6FD"/>
<circle cx="687.246" cy="126.171" r="4.66479" fill="#D3E6FD"/>
<path d="M633.94 395.517H191.166C178.73 395.517 168.598 385.461 168.598 372.948V82.7809C168.598 70.3451 178.73 60.2891 191.166 60.2891H634.017C646.452 60.2891 656.585 70.3451 656.585 82.8576V373.025C656.509 385.384 646.376 395.517 633.94 395.517Z" fill="#F0E993"/>
<path d="M634.784 88.3848H189.938V367.421H634.784V88.3848Z" fill="white"/>
<g clip-path="url(#clip0)">
<path d="M634.784 87.9238H189.938V116.633H634.784V87.9238Z" fill="#3EC1F3"/>
<ellipse cx="225.632" cy="102.893" rx="6.52493" ry="6.52492" fill="#F4F4F6"/>
<ellipse cx="250.964" cy="102.893" rx="6.52493" ry="6.52492" fill="#F4F4F6"/>
<ellipse cx="276.296" cy="102.893" rx="6.52492" ry="6.52492" fill="#F4F4F6"/>
<rect x="305.083" y="97.9033" width="280.956" height="11.5146" rx="5.75728" fill="#F4F4F6" stroke="#F4F4F6" stroke-linejoin="round"/>
</g>
<g clip-path="url(#clip1)">
<path d="M279.12 304.778L267.271 304.571C263.163 297.079 260.149 290.595 260.149 290.595C273.506 287.515 284.794 288.788 294.191 292.401L299.362 305.015L300.485 295.303C323.77 307.887 333.374 334.566 333.374 334.566C333.374 334.566 292.211 330.184 283.494 326.098C280.125 324.528 275.87 318.873 271.94 312.536C275.072 309.516 279.12 304.778 279.12 304.778Z" fill="#65E9AF"/>
<path d="M260.149 290.595C260.149 290.595 313.014 312.891 333.374 334.566C333.374 334.566 292.211 330.184 283.464 326.098C280.096 324.528 275.84 318.873 271.91 312.536C275.072 309.516 279.091 304.778 279.091 304.778L267.241 304.571C263.164 297.079 260.149 290.595 260.149 290.595Z" fill="#37DC94"/>
<path d="M261.834 326.216C268.956 321.864 276.136 319.554 283.08 318.636C285.119 321.183 287.631 324.144 287.631 324.144L287.897 318.192C314.551 316.978 336.654 334.863 336.654 334.863C321.2 344.605 308.05 347.299 297.235 346.44C296.585 344.368 295.698 341.259 295.698 341.259L293.777 346.026C288.606 345.226 284.026 343.598 280.096 341.614C281.101 339.127 282.164 336.314 282.164 336.314L276.432 339.571C266.798 333.708 261.834 326.216 261.834 326.216Z" fill="#65E9AF"/>
<path d="M297.235 346.47C296.585 344.398 295.698 341.288 295.698 341.288L293.777 346.056C288.606 345.256 284.026 343.628 280.096 341.644C281.101 339.156 282.164 336.343 282.164 336.343L276.432 339.601C266.798 333.708 261.834 326.217 261.834 326.217C292.891 322.634 336.654 334.893 336.654 334.893C321.2 344.634 308.02 347.329 297.235 346.47Z" fill="#37DC94"/>
<path d="M404.501 284.615L363.278 301.197L312.275 173.901L347.115 159.866C350.631 158.444 354.65 160.162 356.039 163.685L404.501 284.615Z" fill="#FFC889"/>
<path d="M389.68 168.732L310.769 182.72L330.494 293.907L409.405 279.919L389.68 168.732Z" fill="#FA5C65"/>
<path d="M369.729 183.625L334.495 189.886L334.634 190.673L369.868 184.412L369.729 183.625Z" fill="#55769F"/>
<path d="M376.793 180.292L326.75 189.185L326.889 189.972L376.932 181.079L376.793 180.292Z" fill="#55769F"/>
<path d="M383.949 189.679L323.229 200.469L323.368 201.256L384.089 190.466L383.949 189.679Z" fill="#55769F"/>
<path d="M384.63 193.498L323.909 204.288L324.048 205.075L384.769 194.285L384.63 193.498Z" fill="#55769F"/>
<path d="M385.987 201.106L325.267 211.896L325.406 212.683L386.127 201.893L385.987 201.106Z" fill="#55769F"/>
<path d="M386.667 204.924L325.946 215.714L326.086 216.501L386.806 205.711L386.667 204.924Z" fill="#55769F"/>
<path d="M387.349 208.742L326.628 219.532L326.767 220.319L387.488 209.53L387.349 208.742Z" fill="#55769F"/>
<path d="M390.294 225.516L329.573 236.3L329.712 237.087L390.433 226.303L390.294 225.516Z" fill="#55769F"/>
<path d="M391.014 229.469L330.293 240.259L330.432 241.046L391.153 230.256L391.014 229.469Z" fill="#55769F"/>
<path d="M391.692 233.41L330.971 244.2L331.11 244.987L391.831 234.198L391.692 233.41Z" fill="#55769F"/>
<path d="M392.403 237.376L331.683 248.166L331.822 248.953L392.543 238.163L392.403 237.376Z" fill="#55769F"/>
<path d="M393.109 241.313L332.389 252.103L332.528 252.89L393.249 242.1L393.109 241.313Z" fill="#55769F"/>
<path d="M393.791 245.284L333.07 256.074L333.21 256.861L393.93 246.072L393.791 245.284Z" fill="#55769F"/>
<path d="M394.498 249.221L333.777 260.011L333.917 260.798L394.638 250.008L394.498 249.221Z" fill="#55769F"/>
<path d="M378.309 165.978L300.794 186.368L329.543 295.57L407.058 275.18L378.309 165.978Z" fill="#EDFDFC"/>
<path d="M359.88 183.199L325.248 192.348L325.041 191.549L359.673 182.429L359.88 183.199Z" fill="#FD9A28"/>
<path d="M366.618 179.32L317.476 192.289L317.27 191.49L366.411 178.55L366.618 179.32Z" fill="#FD9A28"/>
<path d="M374.537 188.084L314.876 203.807L314.698 203.038L374.33 187.314L374.537 188.084Z" fill="#FD9A28"/>
<path d="M375.512 191.815L315.881 207.568L315.674 206.768L375.305 191.045L375.512 191.815Z" fill="#FD9A28"/>
<path d="M377.492 199.307L317.831 215.06L317.624 214.26L377.285 198.537L377.492 199.307Z" fill="#FD9A28"/>
<path d="M378.466 203.068L318.835 218.791L318.628 218.021L378.26 202.298L378.466 203.068Z" fill="#FD9A28"/>
<path d="M379.442 206.798L319.81 222.521L319.604 221.752L379.235 206.028L379.442 206.798Z" fill="#FD9A28"/>
<path d="M383.756 223.292L324.125 239.015L323.918 238.215L383.579 222.492L383.756 223.292Z" fill="#FD9A28"/>
<path d="M384.791 227.171L325.159 242.894L324.952 242.124L384.584 226.371L384.791 227.171Z" fill="#FD9A28"/>
<path d="M385.825 231.049L326.164 246.772L325.957 246.002L385.618 230.279L385.825 231.049Z" fill="#FD9A28"/>
<path d="M386.83 234.928L327.198 250.651L326.991 249.881L386.623 234.158L386.83 234.928Z" fill="#FD9A28"/>
<path d="M387.664 238.033L328.022 253.761L328.226 254.534L387.867 238.807L387.664 238.033Z" fill="#55769F"/>
<path d="M388.668 241.917L329.026 257.645L329.229 258.418L388.871 242.69L388.668 241.917Z" fill="#55769F"/>
<path d="M389.7 245.792L330.059 261.52L330.262 262.293L389.903 246.565L389.7 245.792Z" fill="#55769F"/>
<path d="M388.869 290.921L305.893 324.322L257.49 203.541L327.228 160.457C331.158 158.029 336.3 159.747 338.014 164.011L388.869 290.921Z" fill="#FD9A28"/>
<path d="M417.415 165.728L426.959 158.71C426.014 150.242 424.743 143.194 424.743 143.194C412.036 148.406 403.556 155.956 397.971 164.366L401.014 177.661L394.513 170.377C382.752 194.154 390.258 221.455 390.258 221.455C390.258 221.455 421.345 194.065 426.132 185.685C427.993 182.458 428.2 175.381 427.757 167.919C423.443 167.297 417.415 165.728 417.415 165.728Z" fill="#65E9AF"/>
<path d="M424.743 143.194C424.743 143.194 394.424 191.963 390.258 221.455C390.258 221.455 421.344 194.065 426.131 185.685C427.993 182.458 428.2 175.381 427.757 167.919C423.442 167.297 417.414 165.728 417.414 165.728L426.959 158.71C426.013 150.242 424.743 143.194 424.743 143.194Z" fill="#37DC94"/>
<path d="M443.891 173.249C435.587 173.812 428.377 176.062 422.171 179.349C421.965 182.606 421.64 186.485 421.64 186.485L418.005 181.777C395.517 196.197 387.775 223.616 387.775 223.616C406.008 222.639 418.3 217.221 426.633 210.262C425.954 208.189 424.92 205.14 424.92 205.14L429.234 207.953C432.987 204.31 435.794 200.343 437.862 196.434C435.617 194.983 433.105 193.295 433.105 193.295L439.694 192.644C444.127 182.251 443.891 173.249 443.891 173.249Z" fill="#65E9AF"/>
<path d="M426.634 210.262C425.955 208.189 424.92 205.139 424.92 205.139L429.235 207.952C432.987 204.31 435.795 200.342 437.863 196.434C435.617 194.983 433.106 193.295 433.106 193.295L439.695 192.644C444.157 182.25 443.891 173.278 443.891 173.278C416.439 188.32 387.806 223.616 387.806 223.616C406.008 222.639 418.331 217.22 426.634 210.262Z" fill="#37DC94"/>
<path d="M520.159 208.012H525.833C524.917 207.39 523.735 207.005 522.494 207.005H380.329C372.883 207.005 366.854 212.364 366.854 218.968V226.577C366.854 233.181 372.883 238.54 380.329 238.54L520.898 238.51L520.159 208.012Z" fill="#FD898F"/>
<path d="M378.794 226.548V218.938C378.794 212.335 384.822 206.976 392.268 206.976H389.225C381.778 206.976 375.75 212.335 375.75 218.938V226.548C375.75 233.151 381.778 238.511 389.225 238.511H392.239C384.792 238.511 378.794 233.151 378.794 226.548Z" fill="#FA5C65"/>
<path d="M412.065 226.548V218.938C412.065 212.335 418.093 206.976 425.54 206.976H422.496C415.05 206.976 409.021 212.335 409.021 218.938V226.548C409.021 233.151 415.05 238.511 422.496 238.511H425.51C418.093 238.511 412.065 233.151 412.065 226.548Z" fill="#FA5C65"/>
<path d="M439.459 207.034C432.337 207.034 426.575 212.157 426.575 218.464V227.051C426.575 233.358 432.337 238.481 439.459 238.481H527.961V236.556H527.577L505.089 234.661L500.539 218.819C500.539 218.819 509.315 210.055 509.876 209.847C510.438 209.611 527.577 208.93 527.577 208.93H527.931V207.005H439.459V207.034Z" fill="#FA5C65"/>
<path d="M522.198 222.699C522.198 213.43 527.576 208.93 527.576 208.93H441.261C434.731 208.93 429.441 213.638 429.441 219.441V226.045C429.441 231.848 434.731 236.556 441.261 236.556H527.606C527.606 236.556 522.198 234.365 522.198 222.699Z" fill="#EDFDFC"/>
<path d="M429.441 219.441V226.045C429.441 226.903 429.56 227.762 429.796 228.561C432.721 222.225 438.277 216.125 448.915 214.171C473.707 209.581 527.606 208.93 527.606 208.93H441.261C434.731 208.93 429.441 213.638 429.441 219.441Z" fill="#DAEEF7"/>
<path d="M517.825 271.023H524.237C523.173 270.224 521.873 269.75 520.454 269.75H359.555C351.134 269.75 344.308 276.442 344.308 284.733V294.238C344.308 302.499 351.134 309.221 359.555 309.221L518.652 309.162L517.825 271.023Z" fill="#B9A5FF"/>
<path d="M426.485 269.779C418.448 269.779 411.917 276.205 411.917 284.111V294.859C411.917 302.765 418.448 309.191 426.485 309.191H526.659V306.792H526.245L500.773 304.424L495.632 284.585C495.632 284.585 505.561 273.629 506.211 273.333C506.861 273.036 526.245 272.178 526.245 272.178H526.659V269.779H426.485Z" fill="url(#paint0_linear)"/>
<path d="M520.129 289.412C520.129 277.804 526.217 272.208 526.217 272.208H428.525C421.137 272.208 415.139 278.1 415.139 285.355V293.616C415.139 300.871 421.137 306.763 428.525 306.763H526.246C526.246 306.763 520.129 304.01 520.129 289.412Z" fill="#EDFDFC"/>
<path d="M415.139 285.326V293.616C415.139 294.712 415.286 295.748 415.523 296.785C418.832 288.849 425.127 281.239 437.153 278.782C465.226 273.067 526.217 272.208 526.217 272.208H428.525C421.137 272.179 415.139 278.071 415.139 285.326Z" fill="#DAEEF7"/>
<path d="M339.018 239.458H332.605C333.669 238.836 334.969 238.451 336.388 238.451H497.346C505.768 238.451 512.594 243.781 512.594 250.325V257.876C512.594 264.449 505.768 269.749 497.346 269.749L338.19 269.72L339.018 239.458Z" fill="url(#paint1_linear)"/>
<path d="M430.386 238.451C438.453 238.451 444.954 243.544 444.954 249.822V258.349C444.954 264.627 438.424 269.72 430.386 269.72H330.183V267.825H330.596L356.068 265.959L361.21 250.236C361.21 250.236 351.281 241.531 350.631 241.323C349.981 241.087 330.596 240.405 330.596 240.405H330.183V238.51H430.386V238.451Z" fill="url(#paint2_linear)"/>
<path d="M336.684 254.026C336.684 244.818 330.567 240.376 330.567 240.376H428.318C435.706 240.376 441.704 245.054 441.704 250.799V257.372C441.704 263.146 435.706 267.795 428.318 267.795H330.597C330.597 267.795 336.684 265.634 336.684 254.026Z" fill="#EDFDFC"/>
<path d="M441.733 250.799V257.372C441.733 258.231 441.585 259.06 441.349 259.889C438.039 253.612 431.745 247.542 419.718 245.617C391.646 241.086 330.596 240.405 330.596 240.405H428.347C435.734 240.376 441.733 245.054 441.733 250.799Z" fill="#DAEEF7"/>
<path opacity="0.5" d="M483.103 257.876V250.325C483.103 243.751 476.277 238.451 467.855 238.451H483.133C491.554 238.451 498.381 243.781 498.381 250.325V257.876C498.381 264.449 491.554 269.749 483.133 269.749H468.062C476.395 269.661 483.103 264.36 483.103 257.876Z" fill="#50ABFC"/>
<path d="M326.874 310.404H319.959C321.082 309.694 322.5 309.279 324.066 309.279H497.583C506.655 309.279 514.013 315.231 514.013 322.545V330.984C514.013 338.327 506.655 344.249 497.583 344.249L326.017 344.19L326.874 310.404Z" fill="url(#paint3_linear)"/>
<path d="M425.363 309.31C434.051 309.31 441.084 314.995 441.084 322.012V331.547C441.084 338.565 434.051 344.25 425.363 344.25H317.358V342.118H317.802L345.253 340.016L350.809 322.427C350.809 322.427 340.082 312.715 339.403 312.448C338.693 312.211 317.802 311.442 317.802 311.442H317.358V309.31H425.363Z" fill="url(#paint4_linear)"/>
<path d="M324.361 326.72C324.361 316.446 317.771 311.441 317.771 311.441H423.146C431.125 311.441 437.596 316.653 437.596 323.108V330.451C437.596 336.877 431.125 342.118 423.146 342.118H317.771C317.771 342.088 324.361 339.66 324.361 326.72Z" fill="#EDFDFC"/>
<path d="M437.596 323.108V330.451C437.596 331.429 437.448 332.346 437.183 333.235C433.637 326.217 426.811 319.436 413.838 317.275C383.579 312.182 317.771 311.441 317.771 311.441H423.146C431.125 311.441 437.596 316.653 437.596 323.108Z" fill="#DAEEF7"/>
<path d="M486.67 337.627H559.776V333.57H486.67V337.627Z" fill="#DAD2F6"/>
<path d="M557.717 302.144L558.84 307.266C559.254 309.22 558.013 311.145 556.063 311.56L490.787 325.358C488.777 325.773 486.827 324.44 486.473 322.427L485.911 319.081C485.645 317.541 486.384 316.031 487.743 315.291L507.305 304.631C507.719 304.394 508.162 304.275 508.635 304.216L553.433 299.36L553.758 299.331C555.59 299.064 557.333 300.278 557.717 302.144Z" fill="#DAD2F6"/>
<path d="M491.703 317.305C491.703 317.305 482.365 324.115 489.161 335.338L488.748 338.24L476.78 339.039L465.847 336.818L463.808 318.549L490.048 310.731L491.703 317.305Z" fill="url(#paint5_linear)"/>
<path d="M464.339 344.25H565.843C566.818 344.25 567.586 343.48 567.586 342.503V337.084C567.586 336.107 566.818 335.337 565.843 335.337H464.339C463.364 335.337 462.596 336.107 462.596 337.084V342.503C462.596 343.48 463.394 344.25 464.339 344.25Z" fill="url(#paint6_linear)"/>
<path d="M565.252 300.959L490.639 318.578C490.048 318.726 489.427 318.696 488.836 318.518C485.911 317.66 475.952 315.557 467.56 322.723C465.58 324.411 462.537 323.523 461.828 321.006L460.498 316.298C460.055 314.787 460.705 313.159 462.034 312.3C472.879 305.519 520.307 277.064 551.511 279.225C554.466 279.433 557.096 281.061 558.603 283.608L566.73 297.436C567.527 298.857 566.789 300.604 565.252 300.959Z" fill="url(#paint7_linear)"/>
<path d="M472.88 328.201C472.88 330.658 474.889 332.672 477.342 332.672C479.795 332.672 481.804 330.658 481.804 328.201C481.804 325.743 479.795 323.729 477.342 323.729C474.889 323.729 472.88 325.713 472.88 328.201Z" fill="#5938CF"/>
<path d="M272.206 216.895L328.676 184.501L336.329 199.662L278.53 230.308L272.206 216.895Z" fill="white"/>
</g>
<path d="M412.553 80.2478C415.902 80.2478 418.617 77.5327 418.617 74.1835C418.617 70.8342 415.902 68.1191 412.553 68.1191C409.203 68.1191 406.488 70.8342 406.488 74.1835C406.488 77.5327 409.203 80.2478 412.553 80.2478Z" fill="#F4F4F6"/>
<path d="M684.497 427.488H127.827C115.687 427.488 105.925 418.506 105.925 407.336V394.883H706.4V407.336C706.4 418.506 696.638 427.488 684.497 427.488Z" fill="url(#paint8_linear)"/>
<path d="M444.532 404.825H368.216C365.855 404.825 364.046 402.757 364.046 400.257V394.74H448.702V400.257C448.702 402.757 446.813 404.825 444.532 404.825Z" fill="#F4F4F6"/>
<path d="M217.003 178.335C217.003 178.335 228.923 182.297 228.923 189.892C228.923 197.486 228.923 209.374 228.923 211.355C228.923 213.336 217.003 212.676 217.003 211.355C217.003 210.034 217.003 178.335 217.003 178.335Z" fill="#614149"/>
<path d="M144.985 178.335C144.985 178.335 133.065 182.297 133.065 189.892C133.065 197.486 133.065 209.374 133.065 211.355C133.065 213.336 144.985 212.676 144.985 211.355C144.985 210.034 144.985 178.335 144.985 178.335Z" fill="#614149"/>
<path d="M145.965 141.109C146.251 135.803 150.637 131.647 155.95 131.647H206.037C211.351 131.647 215.736 135.803 216.023 141.109L220.407 222.43C220.716 228.156 216.156 232.968 210.422 232.968H151.565C145.831 232.968 141.271 228.156 141.58 222.43L145.965 141.109Z" fill="#835D66"/>
<rect x="150.451" y="125.19" width="59.6005" height="97.3475" fill="#FBD1A7"/>
<path d="M172.592 109.296H188.405L190.184 125.792H170.813L172.592 109.296Z" fill="#FBD1A7"/>
<ellipse cx="180.499" cy="126.13" rx="9.68508" ry="10.3769" fill="#FBD1A7"/>
<ellipse cx="180.499" cy="112.276" rx="8.19507" ry="3.97337" fill="#F5C08E"/>
<path d="M216.012 84.9618C216.012 89.0763 211.579 93.4052 208.562 93.4052C205.544 93.4052 205.085 89.0763 205.085 84.9618C205.085 80.8472 207.531 77.5117 210.548 77.5117C213.566 77.5117 216.012 77.641 216.012 84.9618Z" fill="#FBD1A7"/>
<path d="M213.529 84.6819C213.529 86.9963 210.91 89.4313 209.127 89.4313C207.344 89.4313 207.072 86.9963 207.072 84.6819C207.072 82.3674 208.518 80.4912 210.301 80.4912C212.084 80.4912 213.529 80.5639 213.529 84.6819Z" fill="#FCC38C"/>
<path d="M210.3 80.7403C210.796 80.7403 213.031 80.2437 213.28 83.7204" stroke="#A38153" stroke-linecap="round"/>
<path d="M144.491 84.9618C144.491 89.0763 148.924 93.4052 151.941 93.4052C154.959 93.4052 155.418 89.0763 155.418 84.9618C155.418 80.8472 152.972 77.5117 149.955 77.5117C146.937 77.5117 144.491 77.641 144.491 84.9618Z" fill="#FBD1A7"/>
<path d="M146.974 84.6819C146.974 86.9963 149.593 89.4313 151.376 89.4313C153.159 89.4313 153.431 86.9963 153.431 84.6819C153.431 82.3674 151.985 80.4912 150.202 80.4912C148.419 80.4912 146.974 80.5639 146.974 84.6819Z" fill="#FCC38C"/>
<path d="M150.203 80.7403C149.706 80.7403 147.471 80.2437 147.223 83.7204" stroke="#A38153" stroke-linecap="round"/>
<ellipse cx="180.252" cy="83.7199" rx="30.2969" ry="29.5519" fill="#FBD1A7"/>
<ellipse cx="170.567" cy="84.2168" rx="2.73169" ry="4.2217" fill="#353535"/>
<ellipse cx="171.312" cy="82.9758" rx="0.993343" ry="0.993341" fill="white"/>
<ellipse cx="189.937" cy="84.2168" rx="2.73169" ry="4.2217" fill="#353535"/>
<ellipse cx="190.682" cy="82.9758" rx="0.993343" ry="0.993341" fill="white"/>
<path d="M166.36 76.3526C166.162 74.9619 167.901 73.9327 169.589 73.6211C171.218 73.3201 172.561 73.8616 173.562 74.8626C174.804 76.1044 173.81 77.0975 172.072 76.6008C170.334 76.1042 169.34 76.6503 168.595 77.0975C167.85 77.5447 166.609 78.091 166.36 76.3526Z" fill="#353535"/>
<path d="M193.471 76.3526C193.669 74.9619 191.93 73.9327 190.242 73.6211C188.613 73.3201 187.27 73.8616 186.269 74.8626C185.027 76.1044 186.021 77.0975 187.759 76.6008C189.497 76.1042 190.491 76.6503 191.236 77.0975C191.981 77.5447 193.222 78.091 193.471 76.3526Z" fill="#353535"/>
<path d="M182.734 92.2682C182.734 92.8961 181.622 93.4051 180.251 93.4051C178.879 93.4051 177.768 92.8961 177.768 92.2682C177.768 91.6403 178.879 92.0409 180.251 92.0409C181.622 92.0409 182.734 91.6403 182.734 92.2682Z" fill="#F69E56"/>
<path d="M187.205 96.3848C181.493 99.3648 178.513 99.3648 172.802 96.3848C173.795 97.6264 176.96 99.8615 180.252 99.8615C183.544 99.8615 186.127 97.5437 187.205 96.3848Z" fill="#F7A35B"/>
<line x1="178.766" y1="100.852" x2="181.739" y2="100.852" stroke="#FFB26F" stroke-linecap="round"/>
<ellipse cx="165.352" cy="93.1569" rx="3.4767" ry="2.23502" fill="#EF8771"/>
<ellipse cx="195.152" cy="93.1569" rx="3.47669" ry="2.23502" fill="#EF8771"/>
<path d="M209.803 87.6921C210.548 87.3196 211.045 84.7121 210.3 78.2554C211.248 77.8575 213.28 77.7587 214.025 78.2554C213.528 72.792 213.528 71.7987 214.77 68.8186L215.018 67.4258C216.441 59.268 212.958 53.1662 210.686 52.0055C210.797 49.9452 212.038 49.9452 212.287 49.6968C211.813 49.0999 210.192 48.6064 207.723 47.5287C211.753 45.5389 210.797 43.431 210.686 42.2468C208.065 43.9277 205.648 43.3006 203.574 42.8031C204.522 41.8083 205.155 39.7357 205.352 38.8237C204.404 40.2165 200.808 41.0621 199.129 41.3108C200.077 40.9128 201.105 37.4972 201.5 35.8392C201.302 36.2537 199.485 37.5304 193.795 39.3211C186.683 41.5595 176.904 36.5853 170.681 35.8392C165.703 35.2422 162.088 40.2331 160.903 42.8031C160.191 42.0073 160.606 37.8289 160.903 35.8392C159.717 36.2371 158.828 39.9844 158.532 41.8083C157.584 41.2114 156.951 39.2382 156.754 38.3263C156.28 39.3212 156.951 42.8861 157.347 44.5441C143.123 50.7122 143.518 65.3532 145.493 71.9027L146.382 70.4104L146.726 78.0071C146.726 78.0071 148.713 77.5104 149.706 78.0071C150.7 78.5037 148.713 89.4305 151.693 87.6921C152.438 70.4104 157.248 67.26 160.31 65.6848C160.073 67.4756 161.792 69.7471 162.681 70.6591C161.969 68.2714 163.57 66.1822 164.459 65.4361C169.911 70.8083 178.979 71.4881 182.831 71.1565C179.986 70.7586 177.695 68.5036 176.904 67.4258C188.046 70.0124 195.178 69.001 197.351 68.172C193.084 67.3761 191.03 64.8558 190.536 63.6951C203.1 62.8992 207.571 73.4454 208.065 79.2487C208.263 82.0675 208.313 88.4371 209.803 87.6921Z" fill="#2E2E2E"/>
<ellipse cx="275.1" cy="153.428" rx="4.99523" ry="5.31452" transform="rotate(-127.351 275.1 153.428)" fill="#FBD1A7"/>
<path d="M283.335 154.016L277.709 157.72L271.648 149.779L277.101 143.143C280.437 138.809 281.377 141.028 283.099 139.713C284.821 138.399 286.179 139.907 286.81 139.775C289.16 139.283 289.441 141.374 290.115 141.266C290.79 141.158 293.702 140.307 294.008 141.701C294.315 143.095 286.284 146.461 286.353 147.543C286.423 148.626 291.514 145.377 291.186 147.924C291 149.375 285.996 152.553 283.335 154.016Z" fill="#FBD1A7"/>
<ellipse cx="228.207" cy="189.217" rx="7.49285" ry="7.97178" transform="rotate(-127.351 228.207 189.217)" fill="#FBD1A7"/>
<path d="M232.331 195.495L223.239 183.582L272.071 149.456L278.132 157.397L232.331 195.495Z" fill="#FBD1A7"/>
<ellipse cx="210.107" cy="135.819" rx="9.99046" ry="10.629" fill="#FBD1A7"/>
<path d="M201.073 140.844L219.89 133.692L235.014 186.636L220.902 191.999L201.073 140.844Z" fill="#FBD1A7"/>
<ellipse rx="9.99046" ry="10.629" transform="matrix(-1 0 0 1 150.393 135.819)" fill="#FBD1A7"/>
<path d="M159.427 140.844L140.61 133.692L125.486 186.636L139.598 191.999L159.427 140.844Z" fill="#FBD1A7"/>
<ellipse cx="180.251" cy="224.493" rx="29.8002" ry="31.7544" fill="#FBD1A7"/>
<path d="M150.451 225.021H210.052L209.21 257.305H151.289L150.451 225.021Z" fill="#FBD1A7"/>
<path d="M187.698 228.002H209.93L207.46 314.87H190.168L187.698 228.002Z" fill="#FBD1A7"/>
<ellipse cx="198.815" cy="315.137" rx="8.64579" ry="9.32637" fill="#FBD1A7"/>
<path d="M190.168 314.87H207.46L205.538 371.894H192.089L190.168 314.87Z" fill="#FBD1A7"/>
<ellipse cx="198.814" cy="372.16" rx="6.66961" ry="7.19463" fill="#FBD1A7"/>
<path d="M209.135 395.877H188.632C184.927 395.877 189.536 388.568 190.114 383.886C190.693 379.203 192.145 371.895 192.145 371.895H205.484C205.484 371.895 206.902 379.203 207.529 383.886C208.156 388.568 212.84 395.877 209.135 395.877Z" fill="#FBD1A7"/>
<path d="M150.448 228.002H172.68L170.21 314.87H152.918L150.448 228.002Z" fill="#FBD1A7"/>
<ellipse cx="161.565" cy="315.137" rx="8.64579" ry="9.32637" fill="#FBD1A7"/>
<path d="M152.918 314.87H170.21L168.288 371.894H154.839L152.918 314.87Z" fill="#FBD1A7"/>
<ellipse cx="161.564" cy="372.16" rx="6.66961" ry="7.19463" fill="#FBD1A7"/>
<path d="M171.885 395.877H151.382C147.677 395.877 152.286 388.568 152.864 383.886C153.443 379.203 154.895 371.895 154.895 371.895H168.234C168.234 371.895 169.652 379.203 170.279 383.886C170.906 388.568 175.59 395.877 171.885 395.877Z" fill="#FBD1A7"/>
<path d="M171.885 395.877H151.382C147.677 395.877 152.286 388.309 152.864 383.46C153.443 378.611 154.672 371.043 154.672 371.043L153.927 349.189H169.324L168.579 371.043C168.579 371.043 169.652 378.611 170.279 383.46C170.906 388.309 175.59 395.877 171.885 395.877Z" fill="#F4F4F4"/>
<path d="M176.278 389.396C176.278 391.417 175.098 394.732 172.304 395.877C170.318 395.877 165.825 395.877 161.874 395.877C157.923 395.877 152.934 395.877 150.699 395.877C147.906 394.732 147.471 391.417 147.471 389.396C147.471 385.542 153.566 380.468 161.874 380.468C170.183 380.468 176.278 385.542 176.278 389.396Z" fill="#C4C4C4"/>
<path d="M153.64 374.998C154.048 374.762 154.548 374.722 155.153 374.653C155.773 374.582 156.753 374.653 156.753 374.653C156.753 374.653 156.113 372.036 161.874 372.036C167.636 372.036 166.995 374.653 166.995 374.653C166.995 374.653 168.172 374.567 168.916 374.653C169.553 374.726 169.876 374.762 170.516 374.998C170.817 375.109 172.413 377.867 173.397 380.758C174.506 384.017 174.997 387.445 174.997 387.445C174.997 387.445 171.156 390.643 161.554 390.643C151.952 390.643 148.751 387.445 148.751 387.445C148.751 387.445 149.652 383.293 150.671 380.758C151.61 378.425 153.448 375.109 153.64 374.998Z" fill="#222222"/>
<path d="M161.554 383.666C171.156 383.666 174.997 387.445 174.997 387.445C174.997 387.445 171.476 390.644 161.554 390.644C151.632 390.644 148.751 387.445 148.751 387.445C148.751 387.445 151.952 383.666 161.554 383.666Z" fill="#2C2B2B"/>
<rect x="157.9" y="375.513" width="0.993342" height="5.96005" fill="#C4C4C4"/>
<rect x="164.854" y="375.513" width="0.993345" height="5.96005" fill="#C4C4C4"/>
<path d="M165.395 380.758L165.395 381.339C165.395 381.339 163.271 381.921 161.874 381.921C160.476 381.921 158.353 381.339 158.353 381.339L158.353 380.758C158.353 380.758 160.493 381.049 161.874 381.049C163.254 381.049 165.395 380.758 165.395 380.758Z" fill="#C4C4C4"/>
<path d="M165.395 379.014L165.395 379.595C165.395 379.595 163.271 380.177 161.874 380.177C160.476 380.177 158.353 379.595 158.353 379.595L158.353 379.014C158.353 379.014 160.493 379.304 161.874 379.304C163.254 379.304 165.395 379.014 165.395 379.014Z" fill="#C4C4C4"/>
<path d="M165.395 377.27L165.395 377.851C165.395 377.851 163.271 378.432 161.874 378.432C160.476 378.432 158.353 377.851 158.353 377.851L158.353 377.27C158.353 377.27 160.493 377.56 161.874 377.56C163.254 377.56 165.395 377.27 165.395 377.27Z" fill="#C4C4C4"/>
<path d="M165.395 375.524L165.395 376.106C165.395 376.106 163.271 376.687 161.874 376.687C160.476 376.687 158.353 376.106 158.353 376.106L158.353 375.524C158.353 375.524 160.493 375.815 161.874 375.815C163.254 375.815 165.395 375.524 165.395 375.524Z" fill="#C4C4C4"/>
<path d="M188.617 395.877H209.12C212.825 395.877 208.216 388.309 207.638 383.46C207.059 378.611 205.607 371.043 205.607 371.043L206.574 349.189H191.178L191.923 371.043C191.923 371.043 190.85 378.611 190.223 383.46C189.595 388.309 184.912 395.877 188.617 395.877Z" fill="#F4F4F4"/>
<path d="M184.224 389.396C184.224 391.417 185.404 394.732 188.198 395.877C190.184 395.877 194.677 395.877 198.628 395.877C202.578 395.877 207.568 395.877 209.803 395.877C212.596 394.732 213.031 391.417 213.031 389.396C213.031 385.542 206.936 380.468 198.628 380.468C190.319 380.468 184.224 385.542 184.224 389.396Z" fill="#C4C4C4"/>
<path d="M206.862 374.998C206.454 374.762 205.954 374.722 205.349 374.653C204.729 374.582 203.749 374.653 203.749 374.653C203.749 374.653 204.389 372.036 198.628 372.036C192.866 372.036 193.507 374.653 193.507 374.653C193.507 374.653 192.33 374.567 191.586 374.653C190.949 374.726 190.626 374.762 189.986 374.998C189.685 375.109 188.089 377.867 187.105 380.758C185.996 384.017 185.505 387.445 185.505 387.445C185.505 387.445 189.346 390.643 198.948 390.643C208.55 390.643 211.751 387.445 211.751 387.445C211.751 387.445 210.85 383.293 209.831 380.758C208.892 378.425 207.054 375.109 206.862 374.998Z" fill="#222222"/>
<path d="M198.948 383.666C189.346 383.666 185.505 387.445 185.505 387.445C185.505 387.445 189.026 390.644 198.948 390.644C208.87 390.644 211.751 387.445 211.751 387.445C211.751 387.445 208.55 383.666 198.948 383.666Z" fill="#2C2B2B"/>
<rect width="0.99334" height="5.96005" transform="matrix(-1 0 0 1 202.602 375.513)" fill="#C4C4C4"/>
<rect width="0.993328" height="5.96005" transform="matrix(-1 0 0 1 195.648 375.513)" fill="#C4C4C4"/>
<path d="M195.107 380.758L195.107 381.339C195.107 381.339 197.231 381.921 198.628 381.921C200.026 381.921 202.149 381.339 202.149 381.339L202.149 380.758C202.149 380.758 200.009 381.049 198.628 381.049C197.248 381.049 195.107 380.758 195.107 380.758Z" fill="#C4C4C4"/>
<path d="M195.107 379.014L195.107 379.595C195.107 379.595 197.231 380.177 198.628 380.177C200.026 380.177 202.149 379.595 202.149 379.595L202.149 379.014C202.149 379.014 200.009 379.304 198.628 379.304C197.248 379.304 195.107 379.014 195.107 379.014Z" fill="#C4C4C4"/>
<path d="M195.107 377.27L195.107 377.851C195.107 377.851 197.231 378.432 198.628 378.432C200.026 378.432 202.149 377.851 202.149 377.851L202.149 377.27C202.149 377.27 200.009 377.56 198.628 377.56C197.248 377.56 195.107 377.27 195.107 377.27Z" fill="#C4C4C4"/>
<path d="M195.107 375.524L195.107 376.106C195.107 376.106 197.231 376.687 198.628 376.687C200.026 376.687 202.149 376.106 202.149 376.106L202.149 375.524C202.149 375.524 200.009 375.815 198.628 375.815C197.248 375.815 195.107 375.524 195.107 375.524Z" fill="#C4C4C4"/>
<path d="M151.444 125.19H169.821C169.821 125.19 175.781 132.144 181.741 132.144C187.701 132.144 193.413 125.19 193.413 125.19H211.045L213.528 222.538H148.961L151.444 125.19Z" fill="#F4F4F4"/>
<path fill-rule="evenodd" clip-rule="evenodd" d="M220.911 133.795L220.919 133.792L233.629 172.988L214.609 184.309L202.182 140.613C201.497 139.173 201.111 137.544 201.111 135.819C201.111 129.949 205.584 125.19 211.102 125.19C215.969 125.19 220.023 128.893 220.911 133.795Z" fill="#F4F4F4"/>
<path fill-rule="evenodd" clip-rule="evenodd" d="M140.58 133.794L140.573 133.792L125.399 179.327L146.682 182.045L159.293 140.646C159.988 139.197 160.38 137.557 160.38 135.819C160.38 129.949 155.907 125.19 150.389 125.19C145.523 125.19 141.469 128.893 140.58 133.794Z" fill="#F4F4F4"/>
<path d="M176.648 194.971C175.159 192.24 178.635 140.586 178.635 140.586H184.098C184.098 140.586 187.178 192.24 186.085 194.971C184.993 197.703 182.111 200.683 181.367 200.683C180.622 200.683 178.138 197.703 176.648 194.971Z" fill="#374F7B"/>
<path fill-rule="evenodd" clip-rule="evenodd" d="M181.244 141.138C182.456 141.162 184.451 141.122 184.651 140.607C184.939 139.862 186.672 133.902 186.094 132.66C185.671 131.75 182.765 131.64 181.244 131.647C179.723 131.64 176.818 131.75 176.394 132.66C175.817 133.902 177.549 139.862 177.838 140.607C178.038 141.122 180.033 141.162 181.244 141.138Z" fill="#2D4B71"/>
<path d="M196.838 125.935C196.093 125.19 191.375 122.707 190.878 122.707C190.382 122.707 182.932 131.399 184.422 131.647C185.912 131.895 188.147 138.849 188.892 139.594C189.637 140.339 197.584 126.68 196.838 125.935Z" fill="#EFF0F4"/>
<path d="M165.897 125.935C166.642 125.19 171.36 122.707 171.857 122.707C172.354 122.707 179.804 131.399 178.314 131.647C176.824 131.895 174.589 138.849 173.844 139.594C173.099 140.339 165.152 126.68 165.897 125.935Z" fill="#EFF0F4"/>
<path d="M177.769 222.538H213.529L211.046 366.605C211.046 366.605 204.088 367.566 199.629 367.566C195.171 367.566 188.213 366.605 188.213 366.605L177.769 222.538Z" fill="#374F7B"/>
<path d="M183.729 222.538H148.962L151.445 366.605C151.445 366.605 158.195 367.566 162.52 367.566C166.846 367.566 173.596 366.605 173.596 366.605L183.729 222.538Z" fill="#374F7B"/>
<path d="M164.302 235.459C167.19 235.993 155.747 247.671 150.167 247.485C150.167 247.485 160.301 237.74 164.302 235.459Z" fill="#183261"/>
<path d="M198.795 235.459C195.906 235.993 207.35 247.671 212.929 247.485C212.929 247.485 202.795 237.74 198.795 235.459Z" fill="#183261"/>
<path d="M148.962 222.538H213.529C213.529 222.538 214.026 225.717 214.026 227.753C214.026 229.79 213.529 232.968 213.529 232.968H148.962C148.962 232.968 148.446 229.647 148.465 227.505C148.483 225.556 148.962 222.538 148.962 222.538Z" fill="#2E2E2E"/>
<rect x="157.405" y="222.538" width="1.98668" height="10.4301" fill="#374F7B"/>
<rect x="169.325" y="222.538" width="1.98668" height="10.4301" fill="#374F7B"/>
<rect x="191.179" y="222.538" width="1.98667" height="10.4301" fill="#374F7B"/>
<rect x="203.1" y="222.538" width="1.98669" height="10.4301" fill="#374F7B"/>
<path d="M174.789 222.538C174.789 222.538 178.868 222.041 181.494 222.041C184.12 222.041 188.199 222.538 188.199 222.538V232.968C188.199 232.968 184.12 233.464 181.494 233.464C178.868 233.464 174.789 232.968 174.789 232.968V222.538Z" fill="#4B4748"/>
<path d="M213.529 191.738C198.083 170.588 205.906 135.903 209.571 124.694C209.571 124.694 207.761 124.194 206.575 124.197C205.41 124.201 203.633 124.694 203.633 124.694C189.736 160.056 200.555 192.584 213.529 201.678C213.529 201.678 214.025 198.66 214.025 196.711C214.026 194.759 213.529 191.738 213.529 191.738Z" fill="#614149"/>
<g clip-path="url(#clip2)">
<path d="M204.953 220.845C204.953 220.845 204.777 223.568 202.559 224.579L197.662 223.379L196.923 219.824C196.923 219.824 201.188 216.604 201.205 216.92C201.212 217.278 204.953 220.845 204.953 220.845Z" fill="url(#paint9_linear)"/>
<path d="M171.037 221.748L168.557 176.803L200.028 179.668L202.56 224.58L171.037 221.748Z" fill="url(#paint10_linear)"/>
<path d="M174.261 174.444L170.305 177.468L172.621 220.414L202.263 223.354L204.084 220.782L174.261 174.444Z" fill="#DAEEF7"/>
<path d="M172.621 220.415L175.754 218.096L182.661 214.138L198.341 218.053L204.084 220.782L202.305 223.364L172.621 220.415Z" fill="#DAEEF7"/>
<path d="M175.757 218.095L173.225 173.183L202.424 175.933L204.956 220.845L175.757 218.095Z" fill="url(#paint11_linear)"/>
<path d="M179.29 197.08L178.622 181.714L197.996 182.382L199.333 197.08L179.29 197.08Z" fill="#DAEEF7"/>
</g>
<path d="M148.962 191.738C164.408 170.588 156.586 135.903 152.921 124.694C152.921 124.694 154.73 124.194 155.916 124.197C157.081 124.201 158.858 124.694 158.858 124.694C172.756 160.056 161.937 192.584 148.962 201.678C148.962 201.678 148.466 198.66 148.466 196.711C148.465 194.759 148.962 191.738 148.962 191.738Z" fill="#614149"/>
<ellipse rx="7.49285" ry="7.97178" transform="matrix(-0.346255 0.93814 0.93814 0.346255 132.303 190.024)" fill="#FBD1A7"/>
<path d="M134.398 182.81L129.21 196.868L185.915 215.135L189.374 205.763L134.398 182.81Z" fill="#FBD1A7"/>
<ellipse rx="4.99523" ry="5.31452" transform="matrix(-0.346255 0.93814 0.93814 0.346256 187.645 210.449)" fill="#FBD1A7"/>
<path d="M193.742 204.855L187.03 205.419L187.172 215.408L195.56 217.255C200.86 218.602 200.229 216.276 202.395 216.246C204.561 216.215 204.697 214.19 205.275 213.904C207.426 212.838 206.013 211.776 206.681 210.44C207.349 209.105 204.607 206.432 204.009 207.1C203.411 207.768 200.73 208.973 200.115 208.078C199.5 207.184 205.51 206.593 203.68 204.793C202.636 203.767 196.738 204.361 193.742 204.855Z" fill="#FBD1A7"/>
<defs>
<linearGradient id="paint0_linear" x1="411.902" y1="289.471" x2="526.638" y2="289.471" gradientUnits="userSpaceOnUse">
<stop stop-color="#7854F7"/>
<stop offset="1" stop-color="#7854F7"/>
</linearGradient>
<linearGradient id="paint1_linear" x1="332.586" y1="254.089" x2="512.585" y2="254.089" gradientUnits="userSpaceOnUse">
<stop stop-color="#1E93FB"/>
<stop offset="1" stop-color="#0479E1"/>
</linearGradient>
<linearGradient id="paint2_linear" x1="330.19" y1="254.089" x2="444.971" y2="254.089" gradientUnits="userSpaceOnUse">
<stop stop-color="#2B93F0"/>
<stop offset="1" stop-color="#2C94F1"/>
</linearGradient>
<linearGradient id="paint3_linear" x1="319.934" y1="326.769" x2="513.977" y2="326.769" gradientUnits="userSpaceOnUse">
<stop stop-color="#50ABFC"/>
<stop offset="0.5065" stop-color="#50ABFC"/>
<stop offset="1" stop-color="#50ABFC"/>
</linearGradient>
<linearGradient id="paint4_linear" x1="317.351" y1="326.77" x2="441.086" y2="326.77" gradientUnits="userSpaceOnUse">
<stop stop-color="#1B94FF"/>
<stop offset="0.5065" stop-color="#1792FF"/>
<stop offset="1" stop-color="#1B94FF"/>
</linearGradient>
<linearGradient id="paint5_linear" x1="494.175" y1="303.412" x2="464.824" y2="344.229" gradientUnits="userSpaceOnUse">
<stop stop-color="#7854F7"/>
<stop offset="1" stop-color="#7854F7"/>
</linearGradient>
<linearGradient id="paint6_linear" x1="462.609" y1="339.8" x2="567.601" y2="339.8" gradientUnits="userSpaceOnUse">
<stop stop-color="#AB94FE"/>
<stop offset="1" stop-color="#A389FD"/>
</linearGradient>
<linearGradient id="paint7_linear" x1="460.352" y1="301.387" x2="567.064" y2="301.387" gradientUnits="userSpaceOnUse">
<stop stop-color="#AD96FE"/>
<stop offset="1" stop-color="#A288FC"/>
</linearGradient>
<linearGradient id="paint8_linear" x1="405.768" y1="411.539" x2="819.311" y2="411.539" gradientUnits="userSpaceOnUse">
<stop stop-color="#3EC1F3"/>
<stop offset="1" stop-color="#3EC1F3" stop-opacity="0"/>
</linearGradient>
<linearGradient id="paint9_linear" x1="201.704" y1="217.055" x2="200.119" y2="224.042" gradientUnits="userSpaceOnUse">
<stop stop-color="#81C4FF"/>
<stop offset="1" stop-color="#81C4FF"/>
</linearGradient>
<linearGradient id="paint10_linear" x1="190.799" y1="177.571" x2="180.298" y2="223.843" gradientUnits="userSpaceOnUse">
<stop stop-color="#82C4FF"/>
<stop offset="1" stop-color="#67B6FC"/>
</linearGradient>
<linearGradient id="paint11_linear" x1="230.53" y1="207.159" x2="182.528" y2="207.159" gradientUnits="userSpaceOnUse">
<stop stop-color="#67B6FC"/>
<stop offset="1" stop-color="#81C4FF"/>
</linearGradient>
<clipPath id="clip0">
<rect width="444.846" height="28.7097" fill="white" transform="translate(189.938 87.9238)"/>
</clipPath>
<clipPath id="clip1">
<rect width="310.126" height="203.424" fill="white" transform="translate(257.49 143.194)"/>
</clipPath>
<clipPath id="clip2">
<rect width="51.6245" height="45.2847" fill="white" transform="translate(214.563 178.689) rotate(102.786)"/>
</clipPath>
</defs>
</svg>
